<?xml version="1.0" encoding="UTF-8"?>
<!DOCTYPE svg PUBLIC "-//W3C//DTD SVG 1.1//EN" "http://www.w3.org/Graphics/SVG/1.1/DTD/svg11.dtd">
<!-- Creator: CorelDRAW -->
<svg xmlns="http://www.w3.org/2000/svg" xml:space="preserve" width="512px" height="512px" version="1.1" shape-rendering="geometricPrecision" text-rendering="geometricPrecision" image-rendering="optimizeQuality" fill-rule="evenodd" clip-rule="evenodd"
viewBox="0 0 512 512"
 xmlns:xlink="http://www.w3.org/1999/xlink"
 xmlns:xodm="http://www.corel.com/coreldraw/odm/2003">
 <g id="Layer_x0020_1">
  <metadata id="CorelCorpID_0Corel-Layer"/>
  <path fill="black" fill-rule="nonzero" d="M256 0c70.68,0 134.68,28.66 181.01,74.99 46.33,46.32 74.99,110.33 74.99,181.01 0,70.68 -28.66,134.69 -74.99,181.01 -46.32,46.33 -110.33,74.99 -181.01,74.99 -70.68,0 -134.69,-28.66 -181.01,-74.99 -46.33,-46.33 -74.99,-110.33 -74.99,-181.01 0,-70.68 28.66,-134.69 74.99,-181.01 46.32,-46.33 110.33,-74.99 181.01,-74.99zm32.93 215.34c-0.65,-7.32 -3.59,-12.95 -8.8,-17.05 -3.62,-2.83 -8.33,-4.69 -14.12,-5.55l0 42.43 10.53 2.38c10.01,2.19 18.91,5.08 26.64,8.72 7.69,3.63 14.16,8.01 19.42,13.03 5.27,4.99 9.27,10.81 11.97,17.33 2.7,6.57 4.1,13.93 4.19,22.03 -0.09,12.86 -3.35,23.85 -9.73,33.07 -6.43,9.18 -15.65,16.26 -27.66,21.15 -10.03,4.1 -21.82,6.46 -35.36,7.12l0 23.01 -16.3 0 0 -23.02c-13.59,-0.7 -25.65,-3.16 -36.19,-7.44 -12.67,-5.08 -22.49,-12.81 -29.48,-23.19 -7.03,-10.39 -10.62,-23.52 -10.81,-39.4l47.05 0c0.37,6.51 2.14,12.01 5.21,16.34 3.12,4.38 7.41,7.68 12.86,9.92 3.46,1.44 7.24,2.41 11.36,2.94l0 -44.78 -14.58 -3.39c-17.6,-4.04 -31.43,-10.57 -41.59,-19.6 -10.11,-9.04 -15.13,-21.24 -15.09,-36.66 -0.04,-12.57 3.35,-23.61 10.16,-33.07 6.8,-9.45 16.2,-16.81 28.27,-22.12 9.84,-4.3 20.77,-6.86 32.83,-7.65l0 -22.9 16.3 0 0 22.86c12.44,0.76 23.48,3.34 33.07,7.74 11.65,5.35 20.64,12.81 27.07,22.4 6.42,9.6 9.68,20.68 9.82,33.35l-47.04 0zm-39.22 -22.6c-2.84,0.41 -5.39,1.05 -7.64,1.92 -4.24,1.67 -7.4,3.96 -9.5,6.8 -2.14,2.88 -3.21,6.19 -3.31,9.87 -0.09,3.08 0.52,5.73 1.87,8.06 1.35,2.33 3.35,4.33 5.96,6.1 2.61,1.77 5.78,3.31 9.45,4.61 1.03,0.36 2.08,0.71 3.17,1.05l0 -38.41zm16.3 126.3c3.03,-0.45 5.79,-1.16 8.29,-2.12 4.66,-1.77 8.25,-4.24 10.76,-7.4 2.52,-3.22 3.82,-6.85 3.87,-10.95 -0.05,-3.82 -1.26,-7.12 -3.59,-9.88 -2.33,-2.74 -5.87,-5.12 -10.66,-7.12 -2.53,-1.08 -5.42,-2.1 -8.67,-3.09l0 40.56zm147.07 -220.13c-40.19,-40.19 -95.74,-65.06 -157.08,-65.06 -61.35,0 -116.89,24.87 -157.09,65.06 -40.19,40.2 -65.06,95.74 -65.06,157.09 0,61.34 24.87,116.89 65.06,157.08 40.2,40.2 95.74,65.06 157.09,65.06 61.35,0 116.89,-24.86 157.08,-65.06 40.2,-40.19 65.06,-95.73 65.06,-157.08 0,-61.35 -24.86,-116.89 -65.06,-157.09z"/>
 </g>
</svg>
